<svg width="16" height="14" viewBox="0 0 16 14" fill="none" xmlns="http://www.w3.org/2000/svg">
<path d="M14.5938 0.90625H1.40628C1.18981 0.90625 0.987152 0.959469 0.803809 1.04719L7.96878 8.21216L9.57468 6.66881L15.1965 1.04731C15.0131 0.959531 14.8103 0.90625 14.5938 0.90625Z" fill="#CCCCCC"/>
<path d="M15.859 1.71071L10.5689 7.00052L15.8588 12.2904C15.9465 12.1071 15.9997 11.9044 15.9997 11.688V2.31296C15.9997 2.09661 15.9466 1.89399 15.859 1.71071Z" fill="#CCCCCC"/>
<path d="M0.140937 1.71006C0.0532188 1.8934 0 2.09606 0 2.31253V11.6875C0 11.9039 0.0531562 12.1066 0.140812 12.2898L5.43091 7.00003L0.140937 1.71006Z" fill="#CCCCCC"/>
<path d="M9.90602 7.66297L8.2999 9.2065C8.20833 9.29806 8.0884 9.34384 7.96849 9.34384C7.84858 9.34384 7.72862 9.29806 7.63708 9.2065L6.09346 7.6629L0.803272 12.9527C0.986647 13.0405 1.18943 13.0938 1.40596 13.0938H14.5935C14.8099 13.0938 15.0126 13.0406 15.1959 12.9529L9.90602 7.66297Z" fill="#CCCCCC"/>
</svg>
